<mxfile host="app.diagrams.net" agent="Mozilla/5.0 (Windows NT 10.0; Win64; x64) AppleWebKit/537.36 (KHTML, like Gecko) Chrome/141.0.0.0 Safari/537.36" version="28.2.5">
  <diagram name="Agentic Project Intelligence Flow" id="agentic-flow">
    <mxGraphModel dx="868" dy="468" grid="1" gridSize="10" guides="1" tooltips="1" connect="1" arrows="1" fold="1" page="1" pageScale="1" pageWidth="850" pageHeight="1100" math="0" shadow="0">
      <root>
        <mxCell id="0" />
        <mxCell id="1" parent="0" />
        <mxCell id="2" value="User Query" style="shape=ellipse;fillColor=#dae8fc;" parent="1" vertex="1">
          <mxGeometry x="10" y="230" width="120" height="60" as="geometry" />
        </mxCell>
        <mxCell id="3" value="LangChain Agent&#xa;(Thought → Action → Input → Observation)" style="shape=hexagon;fillColor=#d5e8d4;" parent="1" vertex="1">
          <mxGeometry x="160" y="210" width="290" height="110" as="geometry" />
        </mxCell>
        <mxCell id="4" value="Tool Selector" style="shape=process;fillColor=#fff2cc;" parent="1" vertex="1">
          <mxGeometry x="480" y="235" width="140" height="60" as="geometry" />
        </mxCell>
        <mxCell id="5" value="RAG Retriever&#xa;FAISS Chunks" style="shape=process;fillColor=#f8cecc;" parent="1" vertex="1">
          <mxGeometry x="460" y="60" width="180" height="60" as="geometry" />
        </mxCell>
        <mxCell id="6" value="USGS Water API→ &#xa;API → JSON" style="shape=process;fillColor=#f8cecc;" parent="1" vertex="1">
          <mxGeometry x="460" y="400" width="180" height="60" as="geometry" />
        </mxCell>
        <mxCell id="7" value="LLM Reasoning Loop&#xa;(Max 3 iterations)" style="shape=hexagon;fillColor=#e1d5e7;" parent="1" vertex="1">
          <mxGeometry x="630" y="225" width="200" height="80" as="geometry" />
        </mxCell>
        <mxCell id="8" value="Final Answer" style="shape=ellipse;fillColor=#dae8fc;" parent="1" vertex="1">
          <mxGeometry x="860" y="235" width="120" height="60" as="geometry" />
        </mxCell>
        <mxCell id="e1" style="endArrow=block;" parent="1" source="2" target="3" edge="1">
          <mxGeometry relative="1" as="geometry" />
        </mxCell>
        <mxCell id="e2" style="endArrow=block;" parent="1" source="3" target="4" edge="1">
          <mxGeometry relative="1" as="geometry" />
        </mxCell>
        <mxCell id="e3" style="endArrow=block;" parent="1" source="4" target="5" edge="1">
          <mxGeometry relative="1" as="geometry" />
        </mxCell>
        <mxCell id="e4" style="endArrow=block;" parent="1" source="4" target="6" edge="1">
          <mxGeometry relative="1" as="geometry" />
        </mxCell>
        <mxCell id="e5" style="endArrow=block;" parent="1" source="5" target="7" edge="1">
          <mxGeometry relative="1" as="geometry" />
        </mxCell>
        <mxCell id="e6" style="endArrow=block;" parent="1" source="6" target="7" edge="1">
          <mxGeometry relative="1" as="geometry" />
        </mxCell>
        <mxCell id="e7" style="endArrow=block;" parent="1" source="7" target="8" edge="1">
          <mxGeometry relative="1" as="geometry" />
        </mxCell>
      </root>
    </mxGraphModel>
  </diagram>
</mxfile>
